<?xml version="1.0"?>
<svg xmlns="http://www.w3.org/2000/svg" viewBox="0 0 50 50">
    <path d="M 30.619141 4.609375 C 27.120141 4.609375 22.602766 6.546625 18.259766 9.765625 C 17.864766 10.062625 17.468172 10.359734 17.076172 10.677734 C 16.971172 10.762734 16.866719 10.853453 16.761719 10.939453 C 16.356719 11.274453 15.953734 11.621516 15.552734 11.978516 C 15.414734 12.101516 15.277625 12.222656 15.140625 12.347656 C 14.649625 12.796656 14.160687 13.255328 13.679688 13.736328 L 13.675781 13.740234 L 13.667969 13.75 C 13.165969 14.252 12.683797 14.762391 12.216797 15.275391 C 12.059797 15.447391 11.912766 15.621922 11.759766 15.794922 C 11.454766 16.140922 11.153234 16.487891 10.865234 16.837891 C 10.771234 16.950891 10.68375 17.063734 10.59375 17.177734 C 4.74875 24.500734 3.2570469 31.728703 5.8730469 34.345703 C 6.7130469 35.185703 7.9666563 35.611328 9.5976562 35.611328 C 11.253656 35.611328 13.140953 35.169047 15.126953 34.373047 C 15.626953 30.668047 17.945484 25.845531 21.896484 21.894531 C 25.828484 17.962531 30.662141 15.637234 34.369141 15.115234 C 34.524141 14.724234 34.679594 14.331312 34.808594 13.945312 C 36.017594 10.319312 35.84775 7.379 34.34375 5.875 C 33.50375 5.035 32.250141 4.609375 30.619141 4.609375 z M 36.150391 4.9394531 C 39.361391 8.9464531 37.045781 17.172531 30.800781 24.769531 C 29.911781 25.861531 28.949156 26.935609 27.910156 27.974609 C 27.217156 28.667609 26.502297 29.317313 25.779297 29.945312 C 25.609297 30.094313 25.438578 30.239766 25.267578 30.384766 C 25.033578 30.581766 24.801453 30.780703 24.564453 30.970703 C 19.331453 35.217703 13.812656 37.609375 9.5976562 37.609375 C 7.7076563 37.609375 6.0833281 37.124234 4.8613281 36.115234 C 5.3813281 37.372234 6.5062344 39.528672 8.7402344 41.763672 C 10.567234 43.589672 14.292719 46 19.386719 46 C 24.188719 46 30.206 43.858453 37 37.064453 C 51.125 22.939453 45.230031 12.320875 41.707031 8.796875 C 39.507031 6.596875 37.457391 5.4824531 36.150391 4.9394531 z M 28.207031 8.03125 C 28.617031 7.96725 29.002406 8.2442969 29.066406 8.6542969 C 29.131406 9.0632969 28.852359 9.4476719 28.443359 9.5136719 C 27.964359 9.5896719 27.603516 10.015953 27.603516 10.501953 C 27.603516 11.052953 28.051516 11.501953 28.603516 11.501953 C 29.096516 11.501953 29.510844 11.149063 29.589844 10.664062 C 29.654844 10.255062 30.036219 9.9729219 30.449219 10.044922 C 30.857219 10.110922 31.137313 10.495297 31.070312 10.904297 C 30.875312 12.120297 29.836516 13.001953 28.603516 13.001953 C 27.850516 13.001953 27.182609 12.660813 26.724609 12.132812 C 26.485609 12.759813 26.24125 13.444844 26.03125 14.089844 C 25.81425 15.163844 24.784516 16.001953 23.603516 16.001953 C 22.899516 16.001953 22.265547 15.707281 21.810547 15.238281 C 21.516547 16.162281 21.234641 17.224281 21.056641 17.988281 C 20.849641 19.139281 19.814516 20.001953 18.603516 20.001953 C 17.921516 20.001953 17.304516 19.726203 16.853516 19.283203 C 16.645516 20.208203 16.570672 21.123813 16.513672 21.882812 C 16.482672 22.293813 16.452156 22.658938 16.410156 22.960938 C 16.239156 24.172937 15.1775 25.085937 13.9375 25.085938 C 13.5405 25.085938 13.170891 24.983359 12.837891 24.818359 C 12.854891 25.495359 12.901266 26.124594 12.947266 26.683594 C 13.018266 27.547594 13.081141 28.293969 12.994141 28.917969 C 12.823141 30.129969 11.761484 31.042969 10.521484 31.042969 C 9.1424844 31.042969 8.0214844 29.921969 8.0214844 28.542969 C 8.0214844 27.865969 8.2875312 27.232766 8.7695312 26.759766 C 9.0655312 26.469766 9.5400781 26.474531 9.8300781 26.769531 C 10.120078 27.065531 10.116313 27.540078 9.8203125 27.830078 C 9.6283125 28.019078 9.5214844 28.273922 9.5214844 28.544922 C 9.5214844 29.096922 9.9694844 29.544922 10.521484 29.544922 C 11.017484 29.544922 11.441813 29.186938 11.507812 28.710938 C 11.571813 28.252938 11.516172 27.582594 11.451172 26.808594 C 11.347172 25.561594 11.219797 24.009078 11.466797 22.205078 C 11.470797 22.174078 11.488094 22.149141 11.496094 22.119141 C 11.626094 21.429141 12.023625 20.821266 12.640625 20.447266 C 12.995625 20.232266 13.456875 20.345219 13.671875 20.699219 C 13.887875 21.053219 13.773922 21.515469 13.419922 21.730469 C 13.117922 21.913469 12.9375 22.232937 12.9375 22.585938 C 12.9375 23.136937 13.3855 23.585937 13.9375 23.585938 C 14.4335 23.585938 14.857828 23.227953 14.923828 22.751953 C 14.962828 22.477953 14.986625 22.144531 15.015625 21.769531 C 15.123625 20.340531 15.287672 18.180609 16.388672 16.349609 C 16.391672 16.344609 16.396391 16.342891 16.400391 16.337891 C 16.742391 15.694891 17.353563 15.205734 18.101562 15.052734 C 18.508563 14.972734 18.904328 15.231719 18.986328 15.636719 C 19.069328 16.042719 18.808344 16.438484 18.402344 16.521484 C 17.940344 16.616484 17.603516 17.028953 17.603516 17.501953 C 17.603516 18.052953 18.051516 18.501953 18.603516 18.501953 C 19.087516 18.501953 19.502891 18.157594 19.587891 17.683594 C 19.744891 17.007594 20.504234 13.859172 21.240234 12.701172 C 21.520234 11.878172 22.216562 11.233734 23.101562 11.052734 C 23.508563 10.972734 23.904328 11.231719 23.986328 11.636719 C 24.069328 12.042719 23.808344 12.438484 23.402344 12.521484 C 22.940344 12.616484 22.603516 13.027 22.603516 13.5 C 22.603516 14.051 23.051516 14.5 23.603516 14.5 C 24.076516 14.5 24.488031 14.166078 24.582031 13.705078 C 24.951031 12.556078 25.795547 10.099906 26.435547 9.2539062 C 26.799547 8.6179063 27.434031 8.15425 28.207031 8.03125 z M 37.382812 22.011719 C 37.574562 22.019594 37.763297 22.100906 37.904297 22.253906 C 38.184297 22.558906 38.163422 23.0315 37.857422 23.3125 C 37.649422 23.5035 37.535156 23.765828 37.535156 24.048828 C 37.535156 24.599828 37.983156 25.048828 38.535156 25.048828 C 38.944156 25.048828 39.519531 24.787078 39.519531 24.205078 C 39.519531 24.058078 39.496719 23.913531 39.386719 23.644531 C 39.230719 23.261531 39.414828 22.823016 39.798828 22.666016 C 40.180828 22.510016 40.617391 22.692172 40.775391 23.076172 C 40.946391 23.493172 41.019531 23.832078 41.019531 24.205078 C 41.016531 25.672078 39.75325 26.548828 38.53125 26.548828 C 38.18525 26.548828 37.855641 26.478562 37.556641 26.351562 C 37.586641 26.676562 37.618391 27.000687 37.650391 27.304688 C 37.775391 28.482688 37.874516 29.411766 37.728516 30.009766 C 37.415516 31.301766 36.458469 32.042969 35.105469 32.042969 C 34.527469 32.042969 34.035344 31.824938 33.652344 31.460938 C 33.673344 31.602937 33.695469 31.745578 33.730469 31.892578 C 34.112469 33.517578 33.856953 34.46925 33.251953 35.65625 C 33.022953 36.10725 32.716797 36.522625 32.341797 36.890625 C 32.195797 37.034625 32.005406 37.105469 31.816406 37.105469 C 31.622406 37.105469 31.42725 37.030859 31.28125 36.880859 C 31.04525 36.640859 31.014016 36.287859 31.166016 36.005859 C 30.774016 35.952859 30.408703 35.817516 30.095703 35.603516 C 30.050703 35.999516 30.009609 36.426766 29.974609 36.884766 C 29.884609 38.092766 28.798953 39.037109 27.501953 39.037109 C 26.670953 39.037109 25.939375 38.626953 25.484375 38.001953 C 25.278375 38.571953 25.100844 39.210891 24.964844 39.962891 C 24.746844 41.164891 23.711953 42.037109 22.501953 42.037109 C 22.112953 42.037109 21.748922 41.94025 21.419922 41.78125 C 21.036922 42.58425 20.344344 42.955109 19.902344 43.037109 C 19.856344 43.046109 19.811625 43.050781 19.765625 43.050781 C 19.411625 43.050781 19.096297 42.7985 19.029297 42.4375 C 18.955297 42.0365 19.215281 41.649406 19.613281 41.566406 C 19.719281 41.539406 20.182313 41.361859 20.195312 40.505859 C 20.069313 40.207859 20 39.881063 20 39.539062 C 20 38.841062 20.294594 38.170266 20.808594 37.697266 C 21.114594 37.419266 21.587141 37.438187 21.869141 37.742188 C 22.149141 38.048187 22.129219 38.521734 21.824219 38.802734 C 21.615219 38.993734 21.501953 39.256062 21.501953 39.539062 C 21.501953 40.091062 21.949953 40.539062 22.501953 40.539062 C 22.985953 40.539062 23.400281 40.184313 23.488281 39.695312 C 23.863281 37.621313 24.468531 36.175625 25.394531 35.140625 C 25.414531 35.117625 25.442844 35.106891 25.464844 35.087891 C 25.564844 34.946891 25.679594 34.816266 25.808594 34.697266 C 26.114594 34.419266 26.587141 34.438187 26.869141 34.742188 C 27.149141 35.048187 27.129219 35.521734 26.824219 35.802734 C 26.615219 35.993734 26.501953 36.256062 26.501953 36.539062 C 26.501953 37.091062 26.949953 37.539062 27.501953 37.539062 C 28.000953 37.539062 28.446516 37.187438 28.478516 36.773438 C 28.578516 35.444437 28.775484 33.662797 29.146484 32.716797 C 29.151484 32.704797 29.157109 32.699453 29.162109 32.689453 C 29.298109 32.315453 29.512547 31.971266 29.810547 31.697266 C 30.116547 31.419266 30.589094 31.437187 30.871094 31.742188 C 31.151094 32.048187 31.131172 32.521734 30.826172 32.802734 C 30.617172 32.993734 30.501953 33.256063 30.501953 33.539062 C 30.501953 34.091062 30.949953 34.539062 31.501953 34.539062 C 31.713953 34.539062 32.024391 34.490266 32.275391 34.072266 C 32.283391 34.059266 32.296688 34.051063 32.304688 34.039062 C 32.451687 33.520063 32.451484 33.003328 32.271484 32.236328 C 31.801484 30.234328 32.336078 28.420766 33.705078 27.384766 C 33.709078 27.389766 33.712797 27.390531 33.716797 27.394531 C 33.999797 27.184531 34.392063 27.183687 34.664062 27.429688 C 34.969062 27.709688 34.991891 28.184234 34.712891 28.490234 C 34.421891 28.806234 34.270766 29.598578 34.509766 30.142578 C 34.664766 30.494578 34.898422 30.541016 35.107422 30.541016 C 35.765422 30.541016 36.124437 30.267297 36.273438 29.654297 C 36.356437 29.309297 36.253109 28.328891 36.162109 27.462891 C 36.034109 26.255891 35.909781 24.932625 36.050781 23.890625 C 36.061781 23.726625 36.086906 23.565203 36.128906 23.408203 C 36.134906 23.384203 36.133625 23.354078 36.140625 23.330078 C 36.147625 23.304078 36.165781 23.285719 36.175781 23.261719 C 36.308781 22.862719 36.52875 22.496031 36.84375 22.207031 C 36.99575 22.068531 37.191063 22.003844 37.382812 22.011719 z"/>
</svg>
